<svg xmlns="http://www.w3.org/2000/svg" width="20" height="46" fill="none" viewBox="0 0 20 46"><rect width="20" height="14.608" fill="#C2C2C2"/><rect width="20" height=".622" y="7.459" fill="#858585"/><rect width="20" height=".622" y="5.284" fill="#858585"/><rect width="20" height=".622" y="9.635" fill="#858585"/><rect width="20" height=".622" y="11.811" fill="#858585"/><rect width="20" height=".622" y="13.986" fill="#858585"/><rect width="8.571" height="20.824" x="5.714" y="14.608" fill="#A3A3A3"/><rect width="1.714" height="20.824" x="9.143" y="14.608" fill="#FFF735"/><rect width="2.286" height="2.486" x="4.571" y="1.865" fill="#DBDBDB"/><rect width="2.286" height="2.486" x="13.143" y="1.865" fill="#DBDBDB"/><path fill="#5C5C5C" d="M8.85715 43.2027H11.1429L10.4812 45.6892L9.57895 45.6892L8.85715 43.2027Z"/><path fill="#D9D9D9" d="M4.57144 39.7838H15.4286L14.2857 35.4325H5.7143L4.57144 39.7838Z"/><path fill="#C2C2C2" d="M4.57144 39.7838H15.4286L12.2857 43.2027L8.00001 43.2027L4.57144 39.7838Z"/></svg>